<svg xmlns="http://www.w3.org/2000/svg" viewBox="0 0 32 32" fill="none">
  <defs>
    <linearGradient id="g" x1="0" y1="0" x2="32" y2="32">
      <stop offset="0%" stop-color="#7c3aed"/>
      <stop offset="100%" stop-color="#a855f7"/>
    </linearGradient>
  </defs>
  <rect width="32" height="32" rx="8" fill="url(#g)"/>
  <path d="M16 8a5 5 0 00-5 5v2h-1a1 1 0 00-1 1v7a2 2 0 002 2h10a2 2 0 002-2v-7a1 1 0 00-1-1h-1v-2a5 5 0 00-5-5zm-3 5a3 3 0 016 0v2h-6v-2zm3 6a1.5 1.5 0 011 2.625V23a1 1 0 01-2 0v-1.375A1.5 1.5 0 0116 19z" fill="white" fill-opacity="0.9"/>
</svg>
